<?xml version="1.0" encoding="UTF-8"?>
<svg id="Capa_1" xmlns="http://www.w3.org/2000/svg" version="1.1" viewBox="0 0 161 216">
  <!-- Generator: Adobe Illustrator 30.0.0, SVG Export Plug-In . SVG Version: 2.1.1 Build 123)  -->
  <defs>
    <style>
      .st0 {
        fill: #0cf;
      }

      .st1 {
        fill: #008cb3;
      }

      .st2 {
        fill: #fff;
      }

      .st3 {
        fill: #1b9d84;
      }

      .st4 {
        fill: #f7f9fa;
      }
    </style>
  </defs>
  <g id="Capa_11" data-name="Capa_1">
    <g id="Diseño">
      <g>
        <rect class="st4" y="0" width="161" height="216" rx="6" ry="6"/>
        <g>
          <path class="st0" d="M138.59,164.08c-10.5-.64-19.91,4.14-25.61,11.76-2.15,2.88-6.5,3.02-8.64.13-5.35-7.24-14.03-11.95-23.83-11.95s-18.48,4.71-23.83,11.95c-2.14,2.89-6.49,2.75-8.64-.13-5.7-7.62-15.11-12.4-25.61-11.76-8.96.55-16.9,5.13-21.92,11.9v33.39c0,3.06,2.5,5.54,5.61,5.55,24.77.11,124.17.54,148.83.19,3.09-.04,5.56-2.52,5.56-5.55v-33.6c-5.03-6.77-12.96-11.34-21.91-11.89h0Z"/>
          <g>
            <path class="st1" d="M33.29,85.17c2.27-.6,3.94-2.66,3.94-5.12s-1.72-4.58-4.03-5.15c-.04,0-.06-.03-.1-.04-14.46-3.91-25.1-17.12-25.1-32.82,0-18.78,15.22-34,34-34,15.77,0,29.02,10.73,32.87,25.29.6,2.27,2.66,3.94,5.12,3.94s4.58-1.72,5.15-4.03c0-.04.03-.06.04-.1,3.91-14.46,17.12-25.1,32.82-25.1,18.78,0,34,15.22,34,34s-15.22,34-34,34c-15.7,0-28.9-10.64-32.82-25.1-.01-.03-.03-.06-.04-.1-.57-2.32-2.66-4.03-5.15-4.03s-4.52,1.67-5.12,3.94c-3.1,11.72-12.29,20.96-23.98,24.11-.03,0-.05.03-.08.04-2.32.57-4.03,2.66-4.03,5.15s1.67,4.52,3.94,5.12c14.56,3.85,25.29,17.1,25.29,32.87,0,18.78-15.22,34-34,34s-34-15.22-34-34c0-15.77,10.73-29.02,25.29-32.87h0Z"/>
            <circle class="st3" cx="118" cy="118.04" r="34"/>
          </g>
        </g>
      </g>
    </g>
  </g>
  <g id="Capa_2">
    <path class="st2" d="M155,2c2.21,0,4,1.79,4,4v204c0,2.21-1.79,4-4,4H6c-2.21,0-4-1.79-4-4V6c0-2.21,1.79-4,4-4h149M155,0H6C2.69,0,0,2.69,0,6v204c0,3.31,2.69,6,6,6h149c3.31,0,6-2.69,6-6V6C161,2.69,158.31,0,155,0h0Z"/>
  </g>
</svg>