<?xml version="1.0" encoding="UTF-8"?>
<svg id="Capa_1" xmlns="http://www.w3.org/2000/svg" version="1.1" viewBox="0 0 161 216">
  <!-- Generator: Adobe Illustrator 30.0.0, SVG Export Plug-In . SVG Version: 2.1.1 Build 123)  -->
  <defs>
    <style>
      .st0 {
        fill: none;
        stroke: #1d1d1b;
        stroke-miterlimit: 10;
      }

      .st1 {
        fill: #0cf;
      }

      .st2 {
        fill: #0290b2;
      }

      .st3 {
        fill: #f90;
      }

      .st4 {
        fill: #fff;
      }

      .st5 {
        display: none;
      }
    </style>
  </defs>
  <g id="Diseño">
    <g>
      <rect class="st4" y="0" width="161" height="216" rx="6" ry="6"/>
      <g>
        <path class="st1" d="M140.39,162.06c-10.17,0-19.21,4.81-24.99,12.28-1.25,1.32-2.85,2.18-4.81,2.18-2.11,0-3.99-.94-5.26-2.43-.04-.05-.07-.07-.1-.08-5.79-7.28-14.71-11.95-24.73-11.95s-19.08,4.74-24.86,12.11c0,0-.02.02-.04.03-1.26,1.4-2.91,2.32-4.94,2.32s-3.99-.94-5.26-2.43h0c-5.79-7.32-14.74-12.03-24.79-12.03-7.88,0-15.08,2.89-20.61,7.66v40.28c0,3.31,2.69,6,6,6h149c3.31,0,6-2.69,6-6v-40.28c-5.53-4.77-12.73-7.66-20.61-7.66h0ZM50.55,183.6v-.03h0v.03ZM110.45,183.6s0-.02-.01-.03h.02v.03h0Z"/>
        <g>
          <path class="st2" d="M33.29,85.17c2.27-.6,3.94-2.66,3.94-5.12s-1.72-4.58-4.03-5.15c-.04,0-.06-.03-.1-.04-14.46-3.91-25.1-17.12-25.1-32.82,0-18.78,15.22-34,34-34,15.77,0,29.02,10.73,32.87,25.29.6,2.27,2.66,3.94,5.12,3.94s4.58-1.72,5.15-4.03c0-.04.03-.06.04-.1,3.91-14.46,17.12-25.1,32.82-25.1,18.78,0,34,15.22,34,34s-15.22,34-34,34c-15.7,0-28.9-10.64-32.82-25.1-.01-.03-.03-.06-.04-.1-.57-2.32-2.66-4.03-5.15-4.03s-4.52,1.67-5.12,3.94c-3.1,11.72-12.29,20.96-23.98,24.11-.03,0-.05.03-.08.04-2.32.57-4.03,2.66-4.03,5.15s1.67,4.52,3.94,5.12c14.56,3.85,25.29,17.1,25.29,32.87,0,18.78-15.22,34-34,34s-34-15.22-34-34c0-15.77,10.73-29.02,25.29-32.87h0Z"/>
          <circle class="st3" cx="118" cy="118.04" r="34"/>
        </g>
      </g>
    </g>
  </g>
  <g id="Marco" class="st5">
    <rect class="st0" y="0" width="161" height="216" rx="6" ry="6"/>
  </g>
</svg>